<mxfile host="app.diagrams.net" modified="2024-04-28T11:43:27.185Z" agent="Mozilla/5.0 (Windows NT 10.0; Win64; x64) AppleWebKit/537.36 (KHTML, like Gecko) Chrome/124.0.0.0 Safari/537.36" etag="Ub4et3eVNEGlf8D_WcB5" version="24.0.7" type="device">
  <diagram name="Page-1" id="WEBBRGptgp50nTjtzDW9">
    <mxGraphModel dx="1434" dy="746" grid="1" gridSize="10" guides="1" tooltips="1" connect="1" arrows="1" fold="1" page="1" pageScale="1" pageWidth="827" pageHeight="1169" math="0" shadow="0">
      <root>
        <mxCell id="0" />
        <mxCell id="1" parent="0" />
        <mxCell id="A6773p99iOYKIOM9xPo1-4" value="" style="rounded=0;whiteSpace=wrap;html=1;fillColor=none;strokeWidth=4;strokeColor=#000000;" parent="1" vertex="1">
          <mxGeometry x="293" y="385" width="57" height="165" as="geometry" />
        </mxCell>
        <mxCell id="P3uiX8xtjPLiIknMniAQ-1" value="" style="whiteSpace=wrap;html=1;aspect=fixed;fillColor=#008a00;fontColor=#ffffff;strokeColor=#005700;" parent="1" vertex="1">
          <mxGeometry x="290" y="150" width="400" height="400" as="geometry" />
        </mxCell>
        <mxCell id="A6773p99iOYKIOM9xPo1-3" value="" style="rounded=0;whiteSpace=wrap;html=1;fillColor=none;strokeWidth=4;strokeColor=#00FF00;" parent="1" vertex="1">
          <mxGeometry x="628" y="157.5" width="57" height="125" as="geometry" />
        </mxCell>
        <mxCell id="A6773p99iOYKIOM9xPo1-2" value="" style="rounded=0;whiteSpace=wrap;html=1;fillColor=none;strokeWidth=4;strokeColor=#FF0000;" parent="1" vertex="1">
          <mxGeometry x="628" y="287.5" width="57" height="125" as="geometry" />
        </mxCell>
        <mxCell id="kVpWlXJye1krCwxUyal--10" value="" style="rounded=0;whiteSpace=wrap;html=1;fillColor=none;strokeWidth=4;strokeColor=#0000FF;" parent="1" vertex="1">
          <mxGeometry x="630" y="420" width="57" height="125" as="geometry" />
        </mxCell>
        <mxCell id="A6773p99iOYKIOM9xPo1-1" value="" style="rounded=0;whiteSpace=wrap;html=1;fillColor=none;strokeWidth=4;strokeColor=#FF8000;" parent="1" vertex="1">
          <mxGeometry x="293" y="157.5" width="57" height="125" as="geometry" />
        </mxCell>
        <mxCell id="P3uiX8xtjPLiIknMniAQ-2" value="ESP32-S3-WROOM-1U&lt;br&gt;(s externou anténou)" style="rounded=0;whiteSpace=wrap;html=1;fillColor=#bac8d3;strokeColor=#23445d;" parent="1" vertex="1">
          <mxGeometry x="400" y="160" width="180" height="200" as="geometry" />
        </mxCell>
        <mxCell id="P3uiX8xtjPLiIknMniAQ-3" value="G" style="ellipse;whiteSpace=wrap;html=1;aspect=fixed;" parent="1" vertex="1">
          <mxGeometry x="643.5" y="510" width="30" height="30" as="geometry" />
        </mxCell>
        <mxCell id="P3uiX8xtjPLiIknMniAQ-4" value="6" style="ellipse;whiteSpace=wrap;html=1;aspect=fixed;" parent="1" vertex="1">
          <mxGeometry x="643.5" y="480" width="30" height="30" as="geometry" />
        </mxCell>
        <mxCell id="P3uiX8xtjPLiIknMniAQ-5" value="5" style="ellipse;whiteSpace=wrap;html=1;aspect=fixed;" parent="1" vertex="1">
          <mxGeometry x="643.5" y="450" width="30" height="30" as="geometry" />
        </mxCell>
        <mxCell id="P3uiX8xtjPLiIknMniAQ-6" value="3V3" style="ellipse;whiteSpace=wrap;html=1;aspect=fixed;" parent="1" vertex="1">
          <mxGeometry x="645" y="420" width="30" height="30" as="geometry" />
        </mxCell>
        <mxCell id="P3uiX8xtjPLiIknMniAQ-7" value="G" style="ellipse;whiteSpace=wrap;html=1;aspect=fixed;" parent="1" vertex="1">
          <mxGeometry x="645" y="382.5" width="30" height="30" as="geometry" />
        </mxCell>
        <mxCell id="P3uiX8xtjPLiIknMniAQ-8" value="48" style="ellipse;whiteSpace=wrap;html=1;aspect=fixed;" parent="1" vertex="1">
          <mxGeometry x="645" y="350" width="30" height="30" as="geometry" />
        </mxCell>
        <mxCell id="P3uiX8xtjPLiIknMniAQ-9" value="47" style="ellipse;whiteSpace=wrap;html=1;aspect=fixed;" parent="1" vertex="1">
          <mxGeometry x="643.5" y="320" width="30" height="30" as="geometry" />
        </mxCell>
        <mxCell id="P3uiX8xtjPLiIknMniAQ-10" value="5V" style="ellipse;whiteSpace=wrap;html=1;aspect=fixed;" parent="1" vertex="1">
          <mxGeometry x="643.5" y="290" width="30" height="30" as="geometry" />
        </mxCell>
        <mxCell id="P3uiX8xtjPLiIknMniAQ-12" value="43" style="ellipse;whiteSpace=wrap;html=1;aspect=fixed;" parent="1" vertex="1">
          <mxGeometry x="306.5" y="510" width="30" height="30" as="geometry" />
        </mxCell>
        <mxCell id="P3uiX8xtjPLiIknMniAQ-13" value="44" style="ellipse;whiteSpace=wrap;html=1;aspect=fixed;" parent="1" vertex="1">
          <mxGeometry x="306.5" y="480" width="30" height="30" as="geometry" />
        </mxCell>
        <mxCell id="P3uiX8xtjPLiIknMniAQ-14" value="IO0" style="ellipse;whiteSpace=wrap;html=1;aspect=fixed;" parent="1" vertex="1">
          <mxGeometry x="306.5" y="450" width="30" height="30" as="geometry" />
        </mxCell>
        <mxCell id="P3uiX8xtjPLiIknMniAQ-15" value="EN" style="ellipse;whiteSpace=wrap;html=1;aspect=fixed;" parent="1" vertex="1">
          <mxGeometry x="306.5" y="420" width="30" height="30" as="geometry" />
        </mxCell>
        <mxCell id="P3uiX8xtjPLiIknMniAQ-16" value="G" style="ellipse;whiteSpace=wrap;html=1;aspect=fixed;" parent="1" vertex="1">
          <mxGeometry x="306.5" y="390" width="30" height="30" as="geometry" />
        </mxCell>
        <mxCell id="P3uiX8xtjPLiIknMniAQ-17" value="USB-C" style="whiteSpace=wrap;html=1;aspect=fixed;fillColor=#dae8fc;strokeColor=#6c8ebf;gradientColor=#7ea6e0;" parent="1" vertex="1">
          <mxGeometry x="465" y="510" width="50" height="50" as="geometry" />
        </mxCell>
        <mxCell id="P3uiX8xtjPLiIknMniAQ-19" value="17" style="ellipse;whiteSpace=wrap;html=1;aspect=fixed;" parent="1" vertex="1">
          <mxGeometry x="305" y="220" width="30" height="30" as="geometry" />
        </mxCell>
        <mxCell id="P3uiX8xtjPLiIknMniAQ-20" value="18" style="ellipse;whiteSpace=wrap;html=1;aspect=fixed;" parent="1" vertex="1">
          <mxGeometry x="305" y="190" width="30" height="30" as="geometry" />
        </mxCell>
        <mxCell id="P3uiX8xtjPLiIknMniAQ-21" value="3V3" style="ellipse;whiteSpace=wrap;html=1;aspect=fixed;" parent="1" vertex="1">
          <mxGeometry x="305" y="160" width="30" height="30" as="geometry" />
        </mxCell>
        <mxCell id="P3uiX8xtjPLiIknMniAQ-22" value="G" style="ellipse;whiteSpace=wrap;html=1;aspect=fixed;" parent="1" vertex="1">
          <mxGeometry x="306.5" y="250" width="30" height="30" as="geometry" />
        </mxCell>
        <mxCell id="P3uiX8xtjPLiIknMniAQ-27" value="9" style="ellipse;whiteSpace=wrap;html=1;aspect=fixed;" parent="1" vertex="1">
          <mxGeometry x="645" y="190" width="30" height="30" as="geometry" />
        </mxCell>
        <mxCell id="P3uiX8xtjPLiIknMniAQ-28" value="8" style="ellipse;whiteSpace=wrap;html=1;aspect=fixed;" parent="1" vertex="1">
          <mxGeometry x="643.5" y="220" width="30" height="30" as="geometry" />
        </mxCell>
        <mxCell id="P3uiX8xtjPLiIknMniAQ-30" value="3V3" style="ellipse;whiteSpace=wrap;html=1;aspect=fixed;" parent="1" vertex="1">
          <mxGeometry x="643.5" y="160" width="30" height="30" as="geometry" />
        </mxCell>
        <mxCell id="P3uiX8xtjPLiIknMniAQ-31" value="G" style="ellipse;whiteSpace=wrap;html=1;aspect=fixed;" parent="1" vertex="1">
          <mxGeometry x="643.5" y="250" width="30" height="30" as="geometry" />
        </mxCell>
        <mxCell id="P3uiX8xtjPLiIknMniAQ-35" value="BQ25570,&lt;br&gt;MT3608(L)&lt;br&gt;Nabíjací obvod pre&amp;nbsp;LiFePO4, ochranný obvod" style="rounded=0;whiteSpace=wrap;html=1;" parent="1" vertex="1">
          <mxGeometry x="390" y="370" width="100" height="130" as="geometry" />
        </mxCell>
        <mxCell id="P3uiX8xtjPLiIknMniAQ-36" value="LV IN" style="rounded=0;whiteSpace=wrap;html=1;fillColor=#f8cecc;gradientColor=#ea6b66;strokeColor=#b85450;" parent="1" vertex="1">
          <mxGeometry x="413.5" y="520" width="40" height="25" as="geometry" />
        </mxCell>
        <mxCell id="P3uiX8xtjPLiIknMniAQ-46" value="Bat konektor" style="rounded=0;whiteSpace=wrap;html=1;fillColor=#dae8fc;gradientColor=#7ea6e0;strokeColor=#6c8ebf;" parent="1" vertex="1">
          <mxGeometry x="550" y="487.5" width="70" height="60" as="geometry" />
        </mxCell>
        <mxCell id="P3uiX8xtjPLiIknMniAQ-50" value="Tranzistory pre 5V a 3V3 vetvu, napätie batérie, pre ADC na čítanie Vbat" style="rounded=0;whiteSpace=wrap;html=1;" parent="1" vertex="1">
          <mxGeometry x="500" y="370" width="120" height="110" as="geometry" />
        </mxCell>
        <mxCell id="kVpWlXJye1krCwxUyal--13" value="&lt;font style=&quot;font-size: 18px;&quot;&gt;+&lt;/font&gt;" style="rounded=0;whiteSpace=wrap;html=1;fillColor=#f8cecc;gradientColor=#ea6b66;strokeColor=#b85450;" parent="1" vertex="1">
          <mxGeometry x="600" y="527.5" width="20" height="20" as="geometry" />
        </mxCell>
        <mxCell id="kVpWlXJye1krCwxUyal--14" value="&lt;font style=&quot;font-size: 18px;&quot;&gt;-&lt;/font&gt;" style="rounded=0;whiteSpace=wrap;html=1;fillColor=#f5f5f5;gradientColor=#b3b3b3;strokeColor=#666666;" parent="1" vertex="1">
          <mxGeometry x="550" y="527.5" width="20" height="20" as="geometry" />
        </mxCell>
        <mxCell id="kVpWlXJye1krCwxUyal--15" value="LV G" style="rounded=0;whiteSpace=wrap;html=1;fillColor=#f5f5f5;gradientColor=#b3b3b3;strokeColor=#666666;" parent="1" vertex="1">
          <mxGeometry x="360" y="520" width="40" height="25" as="geometry" />
        </mxCell>
        <mxCell id="A6773p99iOYKIOM9xPo1-6" value="S -" style="ellipse;whiteSpace=wrap;html=1;aspect=fixed;fillColor=#f5f5f5;gradientColor=#b3b3b3;strokeColor=#666666;" parent="1" vertex="1">
          <mxGeometry x="305" y="300" width="30" height="30" as="geometry" />
        </mxCell>
        <mxCell id="A6773p99iOYKIOM9xPo1-7" value="S+" style="ellipse;whiteSpace=wrap;html=1;aspect=fixed;fillColor=#f8cecc;strokeColor=#b85450;gradientColor=#ea6b66;" parent="1" vertex="1">
          <mxGeometry x="306.5" y="340" width="30" height="30" as="geometry" />
        </mxCell>
        <mxCell id="A6773p99iOYKIOM9xPo1-8" value="G" style="ellipse;whiteSpace=wrap;html=1;aspect=fixed;" parent="1" vertex="1">
          <mxGeometry x="350" y="390" width="30" height="30" as="geometry" />
        </mxCell>
        <mxCell id="A6773p99iOYKIOM9xPo1-9" value="EN" style="ellipse;whiteSpace=wrap;html=1;aspect=fixed;" parent="1" vertex="1">
          <mxGeometry x="350" y="420" width="30" height="30" as="geometry" />
        </mxCell>
        <mxCell id="G9qZMcUin5a9Kv4AZ8jg-1" value="Vbat" style="ellipse;whiteSpace=wrap;html=1;aspect=fixed;" vertex="1" parent="1">
          <mxGeometry x="350" y="452.5" width="30" height="30" as="geometry" />
        </mxCell>
        <mxCell id="G9qZMcUin5a9Kv4AZ8jg-2" value="G" style="ellipse;whiteSpace=wrap;html=1;aspect=fixed;" vertex="1" parent="1">
          <mxGeometry x="350" y="482.5" width="30" height="30" as="geometry" />
        </mxCell>
      </root>
    </mxGraphModel>
  </diagram>
</mxfile>
